<svg xmlns="http://www.w3.org/2000/svg" width="200" height="200" viewBox="0 0 200 200">
  <title>FRANCE</title>
  <g id="Innenstern">
    <polyline points="108.22 88.79 101.82 101.16 115.04 96.36" fill="none" stroke="#fff" stroke-linecap="round" stroke-miterlimit="10" stroke-width="0.5"/>
    <polyline points="87.75 103.15 101.87 101.35 88.49 96.62" fill="none" stroke="#fff" stroke-linecap="round" stroke-miterlimit="10" stroke-width="0.5"/>
    <line x1="101.87" y1="101.35" x2="101.87" y2="115.6" fill="none" stroke="#fff" stroke-linecap="round" stroke-miterlimit="10" stroke-width="0.5"/>
  </g>
  <g id="Kreis">
    <circle cx="101.82" cy="101.16" r="4.54" fill="#fff"/>
  </g>
  <g id="Star">
    <line x1="88.49" y1="96.62" x2="81.87" y2="94.13" fill="none" stroke="#00e788" stroke-linecap="round" stroke-miterlimit="10" stroke-width="4"/>
    <line x1="111.49" y1="82.39" x2="108.21" y2="88.79" fill="none" stroke="#f07" stroke-linecap="round" stroke-miterlimit="10" stroke-width="4"/>
    <line x1="101.81" y1="115.6" x2="101.81" y2="122.61" fill="none" stroke="#ffbd00" stroke-linecap="round" stroke-miterlimit="10" stroke-width="4"/>
    <line x1="121.74" y1="93.77" x2="115.03" y2="96.36" fill="none" stroke="#f07" stroke-linecap="round" stroke-miterlimit="10" stroke-width="4"/>
    <line x1="87.75" y1="103.15" x2="80.78" y2="104" fill="none" stroke="#00c3ff" stroke-linecap="round" stroke-miterlimit="10" stroke-width="4"/>
  </g>
  <g id="Punkte">
    <g>
      <circle cx="95.14" cy="88.92" r="0.43" fill="#fff"/>
      <circle cx="98.36" cy="87.68" r="0.43" fill="#fff"/>
      <circle cx="101.81" cy="87.25" r="0.43" fill="#fff"/>
      <circle cx="104.98" cy="87.58" r="0.43" fill="#fff"/>
      <circle cx="108.21" cy="88.79" r="0.43" fill="#fff"/>
      <circle cx="111.09" cy="90.7" r="0.43" fill="#fff"/>
      <circle cx="113.43" cy="93.28" r="0.43" fill="#fff"/>
      <circle cx="115.04" cy="96.36" r="0.43" fill="#fff"/>
      <circle cx="115.89" cy="99.65" r="0.43" fill="#fff"/>
      <circle cx="115.89" cy="102.92" r="0.43" fill="#fff"/>
      <circle cx="115.13" cy="106.31" r="0.43" fill="#fff"/>
      <circle cx="113.5" cy="109.35" r="0.43" fill="#fff"/>
      <circle cx="111.25" cy="111.95" r="0.43" fill="#fff"/>
      <circle cx="108.45" cy="113.96" r="0.43" fill="#fff"/>
      <circle cx="101.81" cy="115.6" r="0.43" fill="#fff"/>
      <circle cx="98.61" cy="115.18" r="0.43" fill="#fff"/>
      <circle cx="95.38" cy="114.02" r="0.43" fill="#fff"/>
      <circle cx="92.51" cy="112.11" r="0.43" fill="#fff"/>
      <circle cx="90.22" cy="109.58" r="0.43" fill="#fff"/>
      <circle cx="88.59" cy="106.52" r="0.43" fill="#fff"/>
      <circle cx="87.75" cy="103.15" r="0.43" fill="#fff"/>
      <circle cx="87.75" cy="99.95" r="0.43" fill="#fff"/>
      <circle cx="88.49" cy="96.62" r="0.43" fill="#fff"/>
      <circle cx="90.05" cy="93.52" r="0.43" fill="#fff"/>
      <circle cx="92.33" cy="90.88" r="0.43" fill="#fff"/>
      <circle cx="105.22" cy="115.18" r="0.43" fill="#fff"/>
    </g>
  </g>
</svg>
