<svg xmlns="http://www.w3.org/2000/svg" width="200" height="200" viewBox="0 0 200 200">
  <title>HUNGARY</title>
  <g id="Innenstern">
    <line x1="100.1" y1="100.24" x2="106.52" y2="87.6" fill="none" stroke="#fff" stroke-linecap="round" stroke-miterlimit="10" stroke-width="0.5"/>
    <line x1="100.1" y1="100.24" x2="111.71" y2="92.1" fill="none" stroke="#fff" stroke-linecap="round" stroke-miterlimit="10" stroke-width="0.5"/>
    <line x1="100.1" y1="100.24" x2="109.37" y2="89.51" fill="none" stroke="#fff" stroke-linecap="round" stroke-miterlimit="10" stroke-width="0.5"/>
    <line x1="100.1" y1="100.24" x2="103.26" y2="86.39" fill="none" stroke="#fff" stroke-linecap="round" stroke-miterlimit="10" stroke-width="0.5"/>
    <line x1="100.1" y1="100.24" x2="113.32" y2="95.17" fill="none" stroke="#fff" stroke-linecap="round" stroke-miterlimit="10" stroke-width="0.5"/>
  </g>
  <g id="Kreis">
    <circle cx="100.1" cy="100.24" r="7.23" fill="#fff"/>
  </g>
  <g id="Star">
    <line x1="103.26" y1="86.39" x2="121.62" y2="10.65" fill="none" stroke="#f07" stroke-linecap="round" stroke-miterlimit="10" stroke-width="4"/>
    <line x1="106.52" y1="87.6" x2="122.91" y2="56.19" fill="none" stroke="#f07" stroke-linecap="round" stroke-miterlimit="10" stroke-width="4"/>
    <line x1="109.37" y1="89.51" x2="128.14" y2="68.28" fill="none" stroke="#f07" stroke-linecap="round" stroke-miterlimit="10" stroke-width="4"/>
    <line x1="111.71" y1="92.1" x2="129.19" y2="80.02" fill="none" stroke="#f07" stroke-linecap="round" stroke-miterlimit="10" stroke-width="4"/>
    <line x1="113.32" y1="95.17" x2="120.1" y2="93" fill="none" stroke="#f07" stroke-linecap="round" stroke-miterlimit="10" stroke-width="4"/>
  </g>
  <g id="Punkte">
    <g>
      <circle cx="93.42" cy="87.73" r="0.43" fill="#fff"/>
      <circle cx="96.64" cy="86.49" r="0.43" fill="#fff"/>
      <circle cx="100.09" cy="86.07" r="0.43" fill="#fff"/>
      <circle cx="103.26" cy="86.39" r="0.43" fill="#fff"/>
      <circle cx="106.49" cy="87.6" r="0.43" fill="#fff"/>
      <circle cx="109.37" cy="89.51" r="0.43" fill="#fff"/>
      <circle cx="111.71" cy="92.1" r="0.43" fill="#fff"/>
      <circle cx="113.32" cy="95.17" r="0.43" fill="#fff"/>
      <circle cx="114.17" cy="98.47" r="0.43" fill="#fff"/>
      <circle cx="114.17" cy="101.73" r="0.43" fill="#fff"/>
      <circle cx="113.41" cy="105.12" r="0.43" fill="#fff"/>
      <circle cx="111.78" cy="108.16" r="0.43" fill="#fff"/>
      <circle cx="109.53" cy="110.76" r="0.43" fill="#fff"/>
      <circle cx="106.73" cy="112.77" r="0.43" fill="#fff"/>
      <circle cx="100.09" cy="114.41" r="0.43" fill="#fff"/>
      <circle cx="96.89" cy="114" r="0.43" fill="#fff"/>
      <circle cx="93.66" cy="112.84" r="0.43" fill="#fff"/>
      <circle cx="90.79" cy="110.92" r="0.43" fill="#fff"/>
      <circle cx="88.5" cy="108.39" r="0.43" fill="#fff"/>
      <circle cx="86.87" cy="105.34" r="0.43" fill="#fff"/>
      <circle cx="86.03" cy="101.96" r="0.43" fill="#fff"/>
      <circle cx="86.03" cy="98.76" r="0.43" fill="#fff"/>
      <circle cx="86.77" cy="95.43" r="0.43" fill="#fff"/>
      <circle cx="88.33" cy="92.33" r="0.43" fill="#fff"/>
      <circle cx="90.61" cy="89.69" r="0.43" fill="#fff"/>
      <circle cx="103.5" cy="114" r="0.43" fill="#fff"/>
    </g>
  </g>
</svg>
