<svg xmlns="http://www.w3.org/2000/svg" width="760" height="520" viewBox="0 0 760 520">
  <title>LEGEND Desktop</title>
  <g id="Scale_EW" data-name="Scale EW">
    <text transform="translate(248.51 264.54)" font-size="14" fill="#575756" font-family="BatonTurbo-Book, Baton Turbo" letter-spacing="0.04em">5</text>
    <path d="M380.28,130.58c-66.7,0-121.73,50.94-128.22,116h1.37c6.48-64.27,60.9-114.61,126.85-114.61a127.5,127.5,0,0,1,0,255c-65.79,0-120.1-50.1-126.8-114.15h-1.37c6.7,64.8,61.62,115.51,128.17,115.51a128.86,128.86,0,0,0,0-257.72Z" fill="#575756"/>
  </g>
  <g id="Colorscale">
    <circle cx="380.41" cy="39.73" r="2.68" fill="#d8d8d8"/>
    <circle cx="430.96" cy="45.72" r="2.68" fill="#f07"/>
    <circle cx="527.49" cy="95.39" r="2.68" fill="#f07"/>
    <circle cx="563.47" cy="137.21" r="2.68" fill="#f07"/>
    <circle cx="587.79" cy="185.25" r="2.68" fill="#f07"/>
    <circle cx="598.62" cy="238.12" r="2.68" fill="#00ffc8"/>
    <circle cx="598.62" cy="287.87" r="2.68" fill="#00ffc8"/>
    <circle cx="584.57" cy="339.45" r="2.68" fill="#00ffc8"/>
    <circle cx="560.14" cy="386.3" r="2.68" fill="#00ffc8"/>
    <circle cx="524.19" cy="424.9" r="2.68" fill="#00ffc8"/>
    <circle cx="481.46" cy="454.85" r="2.68" fill="#ffbd00"/>
    <circle cx="431.76" cy="472.83" r="2.68" fill="#ffbd00"/>
    <circle cx="380.41" cy="478.82" r="2.68" fill="#ffbd00"/>
    <circle cx="332.67" cy="473.49" r="2.68" fill="#ffbd00"/>
    <circle cx="283.08" cy="455.83" r="2.68" fill="#ffbd00"/>
    <circle cx="239.14" cy="427.29" r="2.68" fill="#00c3ff"/>
    <circle cx="203.66" cy="388.95" r="2.68" fill="#00c3ff"/>
    <circle cx="177.39" cy="343.02" r="2.68" fill="#00c3ff"/>
    <circle cx="162.87" cy="291.83" r="2.68" fill="#00c3ff"/>
    <circle cx="161.52" cy="241.93" r="2.68" fill="#00c3ff"/>
    <circle cx="171.96" cy="189.25" r="2.68" fill="#0f8"/>
    <circle cx="195.4" cy="140.24" r="2.68" fill="#0f8"/>
    <circle cx="230.63" cy="98.69" r="2.68" fill="#0f8"/>
    <circle cx="274.57" cy="66.28" r="2.68" fill="#0f8"/>
    <circle cx="325.83" cy="46.66" r="2.68" fill="#0f8"/>
    <circle cx="482.33" cy="65" r="2.68" fill="#f07"/>
    <text transform="translate(325.66 17.41)" font-size="14" fill="#d8d8d8" font-family="BatonTurbo-Regular, Baton Turbo"><tspan letter-spacing="0.01em">S</tspan><tspan x="8.41" y="0">ta</tspan><tspan x="20.82" y="0" letter-spacing="-0.01em">t</tspan><tspan x="25.76" y="0">eless </tspan><tspan x="61.15" y="0" letter-spacing="0.01em">pe</tspan><tspan x="77" y="0">ople</tspan></text>
    <text transform="translate(583.49 393.39)" font-size="14" fill="#00ffc8" font-family="BatonTurbo-Regular, Baton Turbo"><tspan letter-spacing="0.01em">S</tspan><tspan x="8.48" y="0">outheas</tspan><tspan x="58.91" y="0" letter-spacing="-0.01em">t</tspan><tspan x="63.85" y="0">ern </tspan><tspan x="88.02" y="0" letter-spacing="0.01em">A</tspan><tspan x="97.17" y="0">sia</tspan></text>
    <text transform="translate(584.94 140.94)" font-size="14" fill="#f07" font-family="BatonTurbo-Regular, Baton Turbo">Middle East</text>
    <text transform="translate(361.42 507.63)" font-size="14" fill="#ffbd00" font-family="BatonTurbo-Regular, Baton Turbo">Afri<tspan x="22.2" y="0" letter-spacing="0.01em">c</tspan><tspan x="29.48" y="0">a</tspan></text>
    <text transform="translate(109.83 392.92)" font-size="14" fill="#00c3ff" font-family="BatonTurbo-Regular, Baton Turbo"><tspan letter-spacing="0.01em">S</tspan><tspan x="8.48" y="0">outh- and</tspan><tspan x="-22.99" y="17">Middleameri</tspan><tspan x="55.1" y="17" letter-spacing="0.01em">c</tspan><tspan x="62.38" y="17">a</tspan></text>
    <text transform="translate(128.05 142.88)" font-size="14" fill="#0f8" font-family="BatonTurbo-Regular, Baton Turbo">Eu<tspan x="16.41" y="0" letter-spacing="-0.02em">r</tspan><tspan x="21.15" y="0">o</tspan><tspan x="28.97" y="0" letter-spacing="0.01em">p</tspan><tspan x="37.24" y="0">e</tspan></text>
  </g>
  <g id="Legende">
    <text transform="translate(620.32 446.52)" font-size="14" fill="#fff" font-family="BatonTurbo-Regular, Baton Turbo">Ratio of <tspan x="51.79" y="0" letter-spacing="-0.02em">r</tspan><tspan x="56.53" y="0" letter-spacing="0.01em">e</tspan><tspan x="64.11" y="0">fug</tspan><tspan x="83.71" y="0" letter-spacing="0em">e</tspan><tspan x="91.28" y="0">es </tspan><tspan x="0" y="17">in p</tspan><tspan x="23.39" y="17" letter-spacing="-0.02em">r</tspan><tspan x="28.14" y="17">o</tspan><tspan x="35.95" y="17" letter-spacing="0.01em">p</tspan><tspan x="44.23" y="17">ortion </tspan><tspan x="0" y="34" letter-spacing="-0.01em">t</tspan><tspan x="4.94" y="34">o </tspan><tspan x="16.25" y="34" letter-spacing="0em">p</tspan><tspan x="24.53" y="34">opulation</tspan></text>
    <text transform="translate(31.5 445.48)" font-size="14" fill="#fff" font-family="BatonTurbo-Regular, Baton Turbo">Bi<tspan x="12.42" y="0" letter-spacing="0.01em">g</tspan><tspan x="19.7" y="0">gest ratio of </tspan><tspan x="-6.94" y="17" letter-spacing="-0.02em">r</tspan><tspan x="-2.2" y="17" letter-spacing="0.01em">e</tspan><tspan x="5.38" y="17">fug</tspan><tspan x="24.98" y="17" letter-spacing="0em">e</tspan><tspan x="32.55" y="17">es (1</tspan><tspan x="60.23" y="17" letter-spacing="-0.06em">.</tspan><tspan x="62.93" y="17">1</tspan><tspan x="68.43" y="17" letter-spacing="-0.02em">4</tspan><tspan x="76.08" y="17" letter-spacing="0em">%) </tspan><tspan x="35.22" y="34">in eu</tspan><tspan x="65.91" y="34" letter-spacing="-0.02em">r</tspan><tspan x="70.66" y="34">o</tspan><tspan x="78.47" y="34" letter-spacing="0.01em">p</tspan><tspan x="86.74" y="34">e</tspan></text>
    <text transform="translate(41.11 75.03)" font-size="14" fill="#fff" font-family="BatonTurbo-Regular, Baton Turbo">Out of 10000 <tspan x="7.1" y="17">citi</tspan><tspan x="26.62" y="17" letter-spacing="-0.02em">z</tspan><tspan x="32.65" y="17">en the</tspan><tspan x="72.4" y="17" letter-spacing="-0.02em">r</tspan><tspan x="77.14" y="17">e </tspan><tspan x="-3.5" y="34">a</tspan><tspan x="3.82" y="34" letter-spacing="-0.02em">r</tspan><tspan x="8.57" y="34">e 5 </tspan><tspan x="31.01" y="34" letter-spacing="-0.02em">r</tspan><tspan x="35.76" y="34" letter-spacing="0.01em">e</tspan><tspan x="43.33" y="34">fug</tspan><tspan x="62.93" y="34" letter-spacing="0em">e</tspan><tspan x="70.5" y="34">es</tspan></text>
    <polyline points="378.03 255.36 563.81 441.14 612.46 441.14" fill="none" stroke="#575756" stroke-linecap="round" stroke-miterlimit="10" stroke-width="1.5"/>
    <polyline points="270.9 187.4 150.48 69.93 133.12 69.93" fill="none" stroke="#575756" stroke-linecap="round" stroke-miterlimit="10" stroke-width="1.5"/>
    <polyline points="349.58 280.69 189.34 440.94 133.12 440.94" fill="none" stroke="#575756" stroke-linecap="round" stroke-miterlimit="10" stroke-width="1.5"/>
  </g>
  <g id="Kreis">
    <line x1="380.28" y1="259.44" x2="388.69" y2="222.59" fill="none" stroke="#fff" stroke-linecap="round" stroke-miterlimit="10" stroke-width="1.32"/>
    <line x1="417.59" y1="263.24" x2="380.28" y2="259.44" fill="none" stroke="#fff" stroke-linecap="round" stroke-miterlimit="10" stroke-width="1.32"/>
    <line x1="389.31" y1="295.74" x2="380.28" y2="259.44" fill="none" stroke="#fff" stroke-linecap="round" stroke-miterlimit="10" stroke-width="1.32"/>
    <line x1="349.13" y1="238.33" x2="380.28" y2="259.44" fill="none" stroke="#fff" stroke-linecap="round" stroke-miterlimit="10" stroke-width="1.32"/>
    <line x1="343.04" y1="263.84" x2="380.28" y2="259.44" fill="none" stroke="#fff" stroke-linecap="round" stroke-miterlimit="10" stroke-width="1.32"/>
    <circle cx="380.28" cy="259.29" r="21.41" fill="#fff"/>
    <line x1="413.89" y1="112.82" x2="388.69" y2="222.59" fill="none" stroke="#f07" stroke-linecap="round" stroke-miterlimit="10" stroke-width="8.25"/>
    <line x1="287.11" y1="270.7" x2="343.04" y2="263.84" fill="none" stroke="#00c3ff" stroke-linecap="round" stroke-miterlimit="10" stroke-width="8.25"/>
    <line x1="270.26" y1="187.4" x2="349.13" y2="238.33" fill="none" stroke="#00e788" stroke-linecap="round" stroke-miterlimit="10" stroke-width="8.25"/>
    <line x1="417.59" y1="263.24" x2="473.66" y2="269.48" fill="none" stroke="#00ffc8" stroke-linecap="round" stroke-miterlimit="10" stroke-width="8.25"/>
    <line x1="416" y1="405.24" x2="389.31" y2="295.74" fill="none" stroke="#ffbd00" stroke-linecap="round" stroke-miterlimit="10" stroke-width="8.25"/>
    <g>
      <circle cx="362.61" cy="226.14" r="1.13" fill="#fff"/>
      <circle cx="371.15" cy="222.85" r="1.13" fill="#fff"/>
      <circle cx="380.28" cy="221.73" r="1.13" fill="#fff"/>
      <circle cx="388.69" cy="222.59" r="1.13" fill="#fff"/>
      <circle cx="397.26" cy="225.8" r="1.13" fill="#fff"/>
      <circle cx="404.87" cy="230.86" r="1.13" fill="#fff"/>
      <circle cx="411.08" cy="237.71" r="1.13" fill="#fff"/>
      <circle cx="415.33" cy="245.85" r="1.13" fill="#fff"/>
      <circle cx="417.59" cy="254.59" r="1.13" fill="#fff"/>
      <circle cx="417.59" cy="263.24" r="1.13" fill="#fff"/>
      <circle cx="415.59" cy="272.22" r="1.13" fill="#fff"/>
      <circle cx="411.26" cy="280.27" r="1.13" fill="#fff"/>
      <circle cx="405.31" cy="287.16" r="1.13" fill="#fff"/>
      <circle cx="397.87" cy="292.49" r="1.13" fill="#fff"/>
      <circle cx="380.28" cy="296.84" r="1.13" fill="#fff"/>
      <circle cx="371.8" cy="295.74" r="1.13" fill="#fff"/>
      <circle cx="363.24" cy="292.66" r="1.13" fill="#fff"/>
      <circle cx="355.64" cy="287.58" r="1.13" fill="#fff"/>
      <circle cx="349.58" cy="280.89" r="1.13" fill="#fff"/>
      <circle cx="345.24" cy="272.79" r="1.13" fill="#fff"/>
      <circle cx="343.04" cy="263.84" r="1.13" fill="#fff"/>
      <circle cx="343.04" cy="255.36" r="1.13" fill="#fff"/>
      <circle cx="344.99" cy="246.55" r="1.13" fill="#fff"/>
      <circle cx="349.13" cy="238.33" r="1.13" fill="#fff"/>
      <circle cx="355.15" cy="231.34" r="1.13" fill="#fff"/>
      <circle cx="389.31" cy="295.74" r="1.13" fill="#fff"/>
    </g>
  </g>
</svg>
