<svg xmlns="http://www.w3.org/2000/svg" width="200" height="200" viewBox="0 0 200 200">
  <title>LIECHTENSTEIN</title>
  <g id="Punkte">
    <polyline points="93.38 87.53 100.06 100.03 96.61 86.28" fill="none" stroke="#fff" stroke-linecap="round" stroke-miterlimit="10" stroke-width="0.5"/>
    <polyline points="88.31 92.12 100.06 100.03 86.73 95.23" fill="none" stroke="#fff" stroke-linecap="round" stroke-miterlimit="10" stroke-width="0.5"/>
    <line x1="100.06" y1="100.03" x2="113.37" y2="104.91" fill="none" stroke="#fff" stroke-linecap="round" stroke-miterlimit="10" stroke-width="0.5"/>
    <circle cx="100.06" cy="100.03" r="5.95" fill="#fff"/>
    <line x1="119.96" y1="107.29" x2="113.37" y2="104.91" fill="none" stroke="#00f1c8" stroke-linecap="round" stroke-miterlimit="10" stroke-width="4"/>
    <line x1="60.01" y1="85.49" x2="86.73" y2="95.23" fill="none" stroke="#00e788" stroke-linecap="round" stroke-miterlimit="10" stroke-width="4"/>
    <line x1="93.38" y1="87.53" x2="89.96" y2="81.32" fill="none" stroke="#00e788" stroke-linecap="round" stroke-miterlimit="10" stroke-width="4"/>
    <line x1="96.62" y1="86.28" x2="94.9" y2="79.43" fill="none" stroke="#00e788" stroke-linecap="round" stroke-miterlimit="10" stroke-width="4"/>
    <line x1="70.62" y1="80.21" x2="88.31" y2="92.12" fill="none" stroke="#00e788" stroke-linecap="round" stroke-miterlimit="10" stroke-width="4"/>
    <circle cx="93.38" cy="87.53" r="0.43" fill="#fff"/>
    <circle cx="96.61" cy="86.28" r="0.43" fill="#fff"/>
    <circle cx="100.05" cy="85.86" r="0.43" fill="#fff"/>
    <circle cx="103.22" cy="86.19" r="0.43" fill="#fff"/>
    <circle cx="106.46" cy="87.4" r="0.43" fill="#fff"/>
    <circle cx="109.33" cy="89.31" r="0.43" fill="#fff"/>
    <circle cx="111.67" cy="91.89" r="0.43" fill="#fff"/>
    <circle cx="113.28" cy="94.96" r="0.43" fill="#fff"/>
    <circle cx="114.13" cy="98.26" r="0.43" fill="#fff"/>
    <circle cx="114.13" cy="101.53" r="0.43" fill="#fff"/>
    <circle cx="113.37" cy="104.91" r="0.43" fill="#fff"/>
    <circle cx="111.74" cy="107.95" r="0.43" fill="#fff"/>
    <circle cx="109.5" cy="110.55" r="0.43" fill="#fff"/>
    <circle cx="106.69" cy="112.56" r="0.43" fill="#fff"/>
    <circle cx="100.05" cy="114.21" r="0.43" fill="#fff"/>
    <circle cx="96.85" cy="113.79" r="0.43" fill="#fff"/>
    <circle cx="93.62" cy="112.63" r="0.43" fill="#fff"/>
    <circle cx="90.75" cy="110.71" r="0.43" fill="#fff"/>
    <circle cx="88.47" cy="108.18" r="0.43" fill="#fff"/>
    <circle cx="86.83" cy="105.13" r="0.43" fill="#fff"/>
    <circle cx="86" cy="101.75" r="0.43" fill="#fff"/>
    <circle cx="86" cy="98.55" r="0.43" fill="#fff"/>
    <circle cx="86.73" cy="95.23" r="0.43" fill="#fff"/>
    <circle cx="88.3" cy="92.12" r="0.43" fill="#fff"/>
    <circle cx="90.57" cy="89.49" r="0.43" fill="#fff"/>
    <circle cx="103.46" cy="113.79" r="0.43" fill="#fff"/>
  </g>
</svg>
