<svg xmlns="http://www.w3.org/2000/svg" width="200" height="200" viewBox="0 0 200 200">
  <title>PORTUGAL</title>
  <g id="Innenstern">
    <line x1="100.26" y1="100" x2="113.47" y2="94.93" fill="none" stroke="#fff" stroke-linecap="round" stroke-miterlimit="10" stroke-width="0.5"/>
    <line x1="100.26" y1="100" x2="97.04" y2="113.76" fill="none" stroke="#fff" stroke-linecap="round" stroke-miterlimit="10" stroke-width="0.5"/>
    <line x1="100.26" y1="100" x2="103.65" y2="113.76" fill="none" stroke="#fff" stroke-linecap="round" stroke-miterlimit="10" stroke-width="0.5"/>
    <line x1="100.26" y1="100" x2="88.49" y2="92.09" fill="none" stroke="#fff" stroke-linecap="round" stroke-miterlimit="10" stroke-width="0.5"/>
    <line x1="100.26" y1="100" x2="100.26" y2="114.17" fill="none" stroke="#fff" stroke-linecap="round" stroke-miterlimit="10" stroke-width="0.5"/>
  </g>
  <g id="Kreis">
    <circle cx="100.26" cy="100" r="1.13" fill="#fff"/>
  </g>
  <g id="Star">
    <line x1="103.65" y1="113.76" x2="103.65" y2="113.76" fill="none" stroke="#ffbd00" stroke-linecap="round" stroke-miterlimit="10" stroke-width="4"/>
    <line x1="100.26" y1="114.17" x2="100.26" y2="114.17" fill="none" stroke="#ffbd00" stroke-linecap="round" stroke-miterlimit="10" stroke-width="4"/>
    <line x1="97.04" y1="113.76" x2="97.04" y2="113.76" fill="none" stroke="#ffbd00" stroke-linecap="round" stroke-miterlimit="10" stroke-width="4"/>
    <line x1="113.47" y1="94.93" x2="113.47" y2="94.93" fill="none" stroke="#f07" stroke-linecap="round" stroke-miterlimit="10" stroke-width="4"/>
    <line x1="88.49" y1="92.09" x2="88.49" y2="92.09" fill="none" stroke="#00e788" stroke-linecap="round" stroke-miterlimit="10" stroke-width="4"/>
  </g>
  <g id="Punkte">
    <g>
      <circle cx="93.58" cy="87.49" r="0.43" fill="#fff"/>
      <circle cx="96.8" cy="86.25" r="0.43" fill="#fff"/>
      <circle cx="100.25" cy="85.83" r="0.43" fill="#fff"/>
      <circle cx="103.42" cy="86.15" r="0.43" fill="#fff"/>
      <circle cx="106.65" cy="87.36" r="0.43" fill="#fff"/>
      <circle cx="109.53" cy="89.27" r="0.43" fill="#fff"/>
      <circle cx="111.87" cy="91.86" r="0.43" fill="#fff"/>
      <circle cx="113.47" cy="94.93" r="0.43" fill="#fff"/>
      <circle cx="114.32" cy="98.23" r="0.43" fill="#fff"/>
      <circle cx="114.32" cy="101.49" r="0.43" fill="#fff"/>
      <circle cx="113.57" cy="104.88" r="0.43" fill="#fff"/>
      <circle cx="111.94" cy="107.92" r="0.43" fill="#fff"/>
      <circle cx="109.69" cy="110.52" r="0.43" fill="#fff"/>
      <circle cx="106.88" cy="112.53" r="0.43" fill="#fff"/>
      <circle cx="100.25" cy="114.17" r="0.43" fill="#fff"/>
      <circle cx="97.04" cy="113.76" r="0.43" fill="#fff"/>
      <circle cx="93.81" cy="112.6" r="0.43" fill="#fff"/>
      <circle cx="90.95" cy="110.68" r="0.43" fill="#fff"/>
      <circle cx="88.66" cy="108.15" r="0.43" fill="#fff"/>
      <circle cx="87.02" cy="105.1" r="0.43" fill="#fff"/>
      <circle cx="86.19" cy="101.72" r="0.43" fill="#fff"/>
      <circle cx="86.19" cy="98.52" r="0.43" fill="#fff"/>
      <circle cx="86.93" cy="95.19" r="0.43" fill="#fff"/>
      <circle cx="88.49" cy="92.09" r="0.43" fill="#fff"/>
      <circle cx="90.76" cy="89.46" r="0.43" fill="#fff"/>
      <circle cx="103.65" cy="113.76" r="0.43" fill="#fff"/>
    </g>
  </g>
</svg>
