<svg xmlns="http://www.w3.org/2000/svg" width="200" height="200" viewBox="0 0 200 200">
  <title>SPAIN</title>
  <g id="Innenstern">
    <line x1="100.1" y1="100.35" x2="106.49" y2="87.72" fill="none" stroke="#fff" stroke-linecap="round" stroke-miterlimit="10" stroke-width="0.5"/>
    <line x1="100.1" y1="100.35" x2="96.89" y2="114.11" fill="none" stroke="#fff" stroke-linecap="round" stroke-miterlimit="10" stroke-width="0.5"/>
    <line x1="100.1" y1="100.35" x2="86.03" y2="98.87" fill="none" stroke="#fff" stroke-linecap="round" stroke-miterlimit="10" stroke-width="0.5"/>
    <line x1="100.1" y1="100.35" x2="90.61" y2="89.81" fill="none" stroke="#fff" stroke-linecap="round" stroke-miterlimit="10" stroke-width="0.5"/>
    <line x1="100.1" y1="100.35" x2="90.79" y2="111.03" fill="none" stroke="#fff" stroke-linecap="round" stroke-miterlimit="10" stroke-width="0.5"/>
  </g>
  <g id="Kreis">
    <circle cx="100.1" cy="100.35" r="2.41" fill="#fff"/>
  </g>
  <g id="Star">
    <line x1="109.73" y1="81.4" x2="106.49" y2="87.72" fill="none" stroke="#f07" stroke-linecap="round" stroke-miterlimit="10" stroke-width="4"/>
    <line x1="86.15" y1="116.39" x2="90.79" y2="111.03" fill="none" stroke="#00c3ff" stroke-linecap="round" stroke-miterlimit="10" stroke-width="4"/>
    <line x1="86" y1="84.67" x2="90.61" y2="89.81" fill="none" stroke="#00e788" stroke-linecap="round" stroke-miterlimit="10" stroke-width="4"/>
    <line x1="86.03" y1="98.87" x2="86.03" y2="98.87" fill="none" stroke="#00c3ff" stroke-linecap="round" stroke-miterlimit="10" stroke-width="4"/>
    <line x1="96.89" y1="114.11" x2="96.89" y2="114.11" fill="none" stroke="#ffbd00" stroke-linecap="round" stroke-miterlimit="10" stroke-width="4"/>
  </g>
  <g id="Punkte">
    <g>
      <circle cx="93.42" cy="87.85" r="0.43" fill="#fff"/>
      <circle cx="96.64" cy="86.61" r="0.43" fill="#fff"/>
      <circle cx="100.09" cy="86.18" r="0.43" fill="#fff"/>
      <circle cx="103.26" cy="86.51" r="0.43" fill="#fff"/>
      <circle cx="106.49" cy="87.72" r="0.43" fill="#fff"/>
      <circle cx="109.37" cy="89.63" r="0.43" fill="#fff"/>
      <circle cx="111.71" cy="92.21" r="0.43" fill="#fff"/>
      <circle cx="113.32" cy="95.28" r="0.43" fill="#fff"/>
      <circle cx="114.17" cy="98.58" r="0.43" fill="#fff"/>
      <circle cx="114.17" cy="101.85" r="0.43" fill="#fff"/>
      <circle cx="113.41" cy="105.23" r="0.43" fill="#fff"/>
      <circle cx="111.78" cy="108.27" r="0.43" fill="#fff"/>
      <circle cx="109.53" cy="110.87" r="0.43" fill="#fff"/>
      <circle cx="106.73" cy="112.88" r="0.43" fill="#fff"/>
      <circle cx="100.09" cy="114.53" r="0.43" fill="#fff"/>
      <circle cx="96.89" cy="114.11" r="0.43" fill="#fff"/>
      <circle cx="93.66" cy="112.95" r="0.43" fill="#fff"/>
      <circle cx="90.79" cy="111.03" r="0.43" fill="#fff"/>
      <circle cx="88.5" cy="108.51" r="0.43" fill="#fff"/>
      <circle cx="86.87" cy="105.45" r="0.43" fill="#fff"/>
      <circle cx="86.03" cy="102.07" r="0.43" fill="#fff"/>
      <circle cx="86.03" cy="98.87" r="0.43" fill="#fff"/>
      <circle cx="86.77" cy="95.55" r="0.43" fill="#fff"/>
      <circle cx="88.33" cy="92.45" r="0.43" fill="#fff"/>
      <circle cx="90.61" cy="89.81" r="0.43" fill="#fff"/>
      <circle cx="103.5" cy="114.11" r="0.43" fill="#fff"/>
    </g>
  </g>
</svg>
