<svg xmlns="http://www.w3.org/2000/svg" width="200" height="200" viewBox="0 0 200 200">
  <title>SWITZERLAND</title>
  <g id="Innenstern">
    <line x1="100.18" y1="100" x2="106.52" y2="87.6" fill="none" stroke="#fff" stroke-linecap="round" stroke-miterlimit="10" stroke-width="0.5"/>
    <line x1="100.18" y1="100" x2="109.37" y2="89.51" fill="none" stroke="#fff" stroke-linecap="round" stroke-miterlimit="10" stroke-width="0.5"/>
    <line x1="100.18" y1="100" x2="109.53" y2="110.76" fill="none" stroke="#fff" stroke-linecap="round" stroke-miterlimit="10" stroke-width="0.5"/>
    <line x1="100.18" y1="100" x2="106.73" y2="112.77" fill="none" stroke="#fff" stroke-linecap="round" stroke-miterlimit="10" stroke-width="0.5"/>
    <line x1="100.18" y1="100" x2="96.89" y2="114" fill="none" stroke="#fff" stroke-linecap="round" stroke-miterlimit="10" stroke-width="0.5"/>
  </g>
  <g id="Kreis">
    <circle cx="100.18" cy="100" r="7.37" fill="#fff"/>
  </g>
  <g id="Star">
    <line x1="93.73" y1="127.86" x2="96.89" y2="114" fill="none" stroke="#ffbd00" stroke-linecap="round" stroke-miterlimit="10" stroke-width="4"/>
    <line x1="119.43" y1="62.37" x2="106.52" y2="87.6" fill="none" stroke="#f07" stroke-linecap="round" stroke-miterlimit="10" stroke-width="4"/>
    <line x1="118.69" y1="78.84" x2="109.37" y2="89.51" fill="none" stroke="#f07" stroke-linecap="round" stroke-miterlimit="10" stroke-width="4"/>
    <line x1="119.07" y1="121.3" x2="109.53" y2="110.76" fill="none" stroke="#00f1c8" stroke-linecap="round" stroke-miterlimit="10" stroke-width="4"/>
    <line x1="126.79" y1="150.27" x2="106.73" y2="112.77" fill="none" stroke="#ffbd00" stroke-linecap="round" stroke-miterlimit="10" stroke-width="4"/>
  </g>
  <g id="Punkte">
    <g>
      <circle cx="93.42" cy="87.73" r="0.43" fill="#fff"/>
      <circle cx="96.64" cy="86.49" r="0.43" fill="#fff"/>
      <circle cx="100.09" cy="86.07" r="0.43" fill="#fff"/>
      <circle cx="103.26" cy="86.39" r="0.43" fill="#fff"/>
      <circle cx="106.49" cy="87.6" r="0.43" fill="#fff"/>
      <circle cx="109.37" cy="89.51" r="0.43" fill="#fff"/>
      <circle cx="111.71" cy="92.1" r="0.43" fill="#fff"/>
      <circle cx="113.32" cy="95.17" r="0.43" fill="#fff"/>
      <circle cx="114.17" cy="98.47" r="0.43" fill="#fff"/>
      <circle cx="114.17" cy="101.73" r="0.43" fill="#fff"/>
      <circle cx="113.41" cy="105.12" r="0.43" fill="#fff"/>
      <circle cx="111.78" cy="108.16" r="0.43" fill="#fff"/>
      <circle cx="109.53" cy="110.76" r="0.43" fill="#fff"/>
      <circle cx="106.73" cy="112.77" r="0.43" fill="#fff"/>
      <circle cx="100.09" cy="114.41" r="0.43" fill="#fff"/>
      <circle cx="96.89" cy="114" r="0.43" fill="#fff"/>
      <circle cx="93.66" cy="112.84" r="0.43" fill="#fff"/>
      <circle cx="90.79" cy="110.92" r="0.43" fill="#fff"/>
      <circle cx="88.5" cy="108.39" r="0.43" fill="#fff"/>
      <circle cx="86.87" cy="105.34" r="0.43" fill="#fff"/>
      <circle cx="86.03" cy="101.96" r="0.43" fill="#fff"/>
      <circle cx="86.03" cy="98.76" r="0.43" fill="#fff"/>
      <circle cx="86.77" cy="95.43" r="0.43" fill="#fff"/>
      <circle cx="88.33" cy="92.33" r="0.43" fill="#fff"/>
      <circle cx="90.61" cy="89.69" r="0.43" fill="#fff"/>
      <circle cx="103.5" cy="114" r="0.43" fill="#fff"/>
    </g>
  </g>
</svg>
